<svg id="改字重" xmlns="http://www.w3.org/2000/svg" viewBox="0 0 179.72 81.2"><title>制作组logo</title><path d="M347.52,119.76H316.25a21.86,21.86,0,0,1,19.6-12.22v-1a22.87,22.87,0,0,0-20.71,13.22h-57V97.42H212.48a22.87,22.87,0,0,0-22.33,22.33h0v45.68H369.86V119.76Zm-134,22.84h0a21.87,21.87,0,0,1,21.34-21.83v21.91a21.86,21.86,0,0,1-21.34,21.75Zm0-6.68V120.76h15.16A23,23,0,0,0,213.48,135.92Zm-22.34,28.52V120.76h21.34v43.68Zm28.53,0a23,23,0,0,0,15.15-15.15v15.15Zm37.49,0H235.82V120.26h0v-.5H213.48V98.42h43.68Zm105.51-43.68a22.94,22.94,0,0,0-15.15,15.16V120.76Zm-67,0a23,23,0,0,0-15.16,15.16V120.76Zm-22.34,0a23,23,0,0,0-15.16,15.16V120.76Zm-15.16,43.68V142.6a21.87,21.87,0,0,1,21.34-21.83v43.67Zm22.34,0V142.6a21.87,21.87,0,0,1,21.34-21.83v43.67Zm22.34,0V120.76H314.7a22.87,22.87,0,0,0-1.69,8.62h1a21.75,21.75,0,0,1,1.78-8.62h8.39v43.68Zm22.34,0V120.76h21.34v43.68Zm22.34,0V142.6a21.87,21.87,0,0,1,21.34-21.83v43.67Z" transform="translate(-190.14 -97.42)"/><path d="M231.51,171.83h-1a4.39,4.39,0,0,1-1.54.56v.82h1.2v4.21h-1.43v1.07h4v-1.07h-1.25Z" transform="translate(-190.14 -97.42)"/><path d="M239.12,171.7c-1.36,0-2.26,1.13-2.26,3.43s.9,3.49,2.26,3.49,2.25-1.19,2.25-3.49S240.47,171.7,239.12,171.7Zm0,5.88c-.58,0-1-.57-1-2.45s.43-2.4,1-2.4,1,.54,1,2.4S239.69,177.58,239.12,177.58Z" transform="translate(-190.14 -97.42)"/><path d="M254.39,175c-.14.41-.26.85-.4,1.28h-.05c-.13-.43-.26-.87-.4-1.28l-1.14-3.12h-1.47v6.66h1.19v-2.78c0-.63-.1-1.56-.17-2.19h0l.53,1.57,1,2.8h.76l1-2.8.54-1.57h0c-.06.63-.16,1.56-.16,2.19v2.78H257v-6.66H255.5Z" transform="translate(-190.14 -97.42)"/><rect x="71.62" y="74.41" width="1.33" height="6.66"/><path d="M271.72,174.49c0,.75.1,1.63.17,2.33h-.05l-.66-1.44-1.94-3.55h-1.36v6.66h1.26v-2.67c0-.77-.1-1.6-.16-2.32h0l.67,1.43,1.93,3.56H273v-6.66h-1.26Z" transform="translate(-190.14 -97.42)"/><path d="M286.06,174.79l-.87-.37c-.57-.22-1-.39-1-.87s.37-.7,1-.7a2.12,2.12,0,0,1,1.41.55l.68-.84a3,3,0,0,0-2.09-.86,2.08,2.08,0,0,0-2.31,1.93,1.93,1.93,0,0,0,1.36,1.79l.89.38c.59.25,1,.41,1,.9s-.37.77-1.07.77a2.64,2.64,0,0,1-1.69-.74l-.76.92a3.54,3.54,0,0,0,2.43,1,2.17,2.17,0,0,0,2.45-2A1.86,1.86,0,0,0,286.06,174.79Z" transform="translate(-190.14 -97.42)"/><polygon points="100.84 75.52 102.71 75.52 102.71 81.07 104.04 81.07 104.04 75.52 105.93 75.52 105.93 74.41 100.84 74.41 100.84 75.52"/><path d="M304.15,175.61c0,1.39-.5,1.86-1.29,1.86s-1.26-.47-1.26-1.86v-3.78h-1.34v3.66c0,2.22,1,3.13,2.6,3.13s2.57-.91,2.57-3.13v-3.66h-1.28Z" transform="translate(-190.14 -97.42)"/><path d="M312,171.83h-1.83v6.66h1.9c2,0,3.22-1.11,3.22-3.36A3,3,0,0,0,312,171.83Zm-.08,5.59h-.42v-4.53h.42c1.24,0,2,.61,2,2.24S313.17,177.42,311.93,177.42Z" transform="translate(-190.14 -97.42)"/><rect x="129.62" y="74.41" width="1.33" height="6.66"/><path d="M328.52,171.7c-1.76,0-3,1.26-3,3.43s1.22,3.49,3,3.49,3-1.33,3-3.49S330.29,171.7,328.52,171.7Zm0,5.77c-1,0-1.62-.91-1.62-2.34s.63-2.28,1.62-2.28,1.63.85,1.63,2.28S329.51,177.47,328.52,177.47Z" transform="translate(-190.14 -97.42)"/><rect x="0.5" y="78.92" width="22.34" height="1"/><rect x="156.88" y="78.92" width="22.34" height="1"/></svg>